<svg id="visual" viewBox="0 0 900 600" width="900" height="600" xmlns="http://www.w3.org/2000/svg" xmlns:xlink="http://www.w3.org/1999/xlink" version="1.1"><rect x="0" y="0" width="900" height="600" fill="#000"></rect><path d="M0 264L16.7 268.3C33.3 272.7 66.7 281.3 100 288C133.3 294.7 166.7 299.3 200 290.3C233.3 281.3 266.7 258.7 300 254.8C333.3 251 366.7 266 400 281C433.3 296 466.7 311 500 307.7C533.3 304.3 566.7 282.7 600 264.2C633.3 245.7 666.7 230.3 700 228.2C733.3 226 766.7 237 800 249.5C833.3 262 866.7 276 883.3 283L900 290L900 601L883.3 601C866.7 601 833.3 601 800 601C766.7 601 733.3 601 700 601C666.7 601 633.3 601 600 601C566.7 601 533.3 601 500 601C466.7 601 433.3 601 400 601C366.7 601 333.3 601 300 601C266.7 601 233.3 601 200 601C166.7 601 133.3 601 100 601C66.7 601 33.3 601 16.7 601L0 601Z" fill="#422f00"></path><path d="M0 285L16.7 292.3C33.3 299.7 66.7 314.3 100 326.7C133.3 339 166.7 349 200 341.7C233.3 334.3 266.7 309.7 300 300.3C333.3 291 366.7 297 400 298.3C433.3 299.7 466.7 296.3 500 303.7C533.3 311 566.7 329 600 339C633.3 349 666.7 351 700 352.7C733.3 354.3 766.7 355.7 800 344.8C833.3 334 866.7 311 883.3 299.5L900 288L900 601L883.3 601C866.7 601 833.3 601 800 601C766.7 601 733.3 601 700 601C666.7 601 633.3 601 600 601C566.7 601 533.3 601 500 601C466.7 601 433.3 601 400 601C366.7 601 333.3 601 300 601C266.7 601 233.3 601 200 601C166.7 601 133.3 601 100 601C66.7 601 33.3 601 16.7 601L0 601Z" fill="#654a08"></path><path d="M0 369L16.7 366.5C33.3 364 66.7 359 100 359.3C133.3 359.7 166.7 365.3 200 370.2C233.3 375 266.7 379 300 385.3C333.3 391.7 366.7 400.3 400 406C433.3 411.7 466.7 414.3 500 415.5C533.3 416.7 566.7 416.3 600 416.8C633.3 417.3 666.7 418.7 700 409.2C733.3 399.7 766.7 379.3 800 372.8C833.3 366.3 866.7 373.7 883.3 377.3L900 381L900 601L883.3 601C866.7 601 833.3 601 800 601C766.7 601 733.3 601 700 601C666.7 601 633.3 601 600 601C566.7 601 533.3 601 500 601C466.7 601 433.3 601 400 601C366.7 601 333.3 601 300 601C266.7 601 233.3 601 200 601C166.7 601 133.3 601 100 601C66.7 601 33.3 601 16.7 601L0 601Z" fill="#8a6710"></path><path d="M0 477L16.7 471C33.3 465 66.7 453 100 448.5C133.3 444 166.7 447 200 456.3C233.3 465.7 266.7 481.3 300 481C333.3 480.7 366.7 464.3 400 453.8C433.3 443.3 466.7 438.7 500 435C533.3 431.3 566.7 428.7 600 437C633.3 445.3 666.7 464.7 700 474.2C733.3 483.7 766.7 483.3 800 483.7C833.3 484 866.7 485 883.3 485.5L900 486L900 601L883.3 601C866.7 601 833.3 601 800 601C766.7 601 733.3 601 700 601C666.7 601 633.3 601 600 601C566.7 601 533.3 601 500 601C466.7 601 433.3 601 400 601C366.7 601 333.3 601 300 601C266.7 601 233.3 601 200 601C166.7 601 133.3 601 100 601C66.7 601 33.3 601 16.7 601L0 601Z" fill="#b18518"></path><path d="M0 517L16.7 520.3C33.3 523.7 66.7 530.3 100 530.5C133.3 530.7 166.7 524.3 200 516.7C233.3 509 266.7 500 300 499.3C333.3 498.7 366.7 506.3 400 510.3C433.3 514.3 466.7 514.7 500 512.2C533.3 509.7 566.7 504.3 600 506.5C633.3 508.7 666.7 518.3 700 522.5C733.3 526.7 766.7 525.3 800 523.2C833.3 521 866.7 518 883.3 516.5L900 515L900 601L883.3 601C866.7 601 833.3 601 800 601C766.7 601 733.3 601 700 601C666.7 601 633.3 601 600 601C566.7 601 533.3 601 500 601C466.7 601 433.3 601 400 601C366.7 601 333.3 601 300 601C266.7 601 233.3 601 200 601C166.7 601 133.3 601 100 601C66.7 601 33.3 601 16.7 601L0 601Z" fill="#daa520"></path></svg>