<svg id="visual" viewBox="0 0 900 600" width="900" height="600" xmlns="http://www.w3.org/2000/svg" xmlns:xlink="http://www.w3.org/1999/xlink" version="1.1"><rect x="0" y="0" width="900" height="600" fill="#000"></rect><path d="M0 310L21.5 304.5C43 299 86 288 128.8 278.2C171.7 268.3 214.3 259.7 257.2 262.5C300 265.3 343 279.7 385.8 279.3C428.7 279 471.3 264 514.2 272.3C557 280.7 600 312.3 642.8 314.2C685.7 316 728.3 288 771.2 293.5C814 299 857 338 878.5 357.5L900 377L900 601L878.5 601C857 601 814 601 771.2 601C728.3 601 685.7 601 642.8 601C600 601 557 601 514.2 601C471.3 601 428.7 601 385.8 601C343 601 300 601 257.2 601C214.3 601 171.7 601 128.8 601C86 601 43 601 21.5 601L0 601Z" fill="#422f00"></path><path d="M0 402L21.5 405.3C43 408.7 86 415.3 128.8 403.8C171.7 392.3 214.3 362.7 257.2 359.3C300 356 343 379 385.8 389.2C428.7 399.3 471.3 396.7 514.2 382.2C557 367.7 600 341.3 642.8 332.8C685.7 324.3 728.3 333.7 771.2 348.5C814 363.3 857 383.7 878.5 393.8L900 404L900 601L878.5 601C857 601 814 601 771.2 601C728.3 601 685.7 601 642.8 601C600 601 557 601 514.2 601C471.3 601 428.7 601 385.8 601C343 601 300 601 257.2 601C214.3 601 171.7 601 128.8 601C86 601 43 601 21.5 601L0 601Z" fill="#654a08"></path><path d="M0 435L21.5 438.2C43 441.3 86 447.7 128.8 447C171.7 446.3 214.3 438.7 257.2 429C300 419.3 343 407.7 385.8 411.5C428.7 415.3 471.3 434.7 514.2 435.2C557 435.7 600 417.3 642.8 418.8C685.7 420.3 728.3 441.7 771.2 437.7C814 433.7 857 404.3 878.5 389.7L900 375L900 601L878.5 601C857 601 814 601 771.2 601C728.3 601 685.7 601 642.8 601C600 601 557 601 514.2 601C471.3 601 428.7 601 385.8 601C343 601 300 601 257.2 601C214.3 601 171.7 601 128.8 601C86 601 43 601 21.5 601L0 601Z" fill="#8a6710"></path><path d="M0 434L21.5 445.3C43 456.7 86 479.3 128.8 489.5C171.7 499.7 214.3 497.3 257.2 486.2C300 475 343 455 385.8 448.3C428.7 441.7 471.3 448.3 514.2 454.2C557 460 600 465 642.8 472.3C685.7 479.7 728.3 489.3 771.2 483.2C814 477 857 455 878.5 444L900 433L900 601L878.5 601C857 601 814 601 771.2 601C728.3 601 685.7 601 642.8 601C600 601 557 601 514.2 601C471.3 601 428.7 601 385.8 601C343 601 300 601 257.2 601C214.3 601 171.7 601 128.8 601C86 601 43 601 21.5 601L0 601Z" fill="#b18518"></path><path d="M0 522L21.5 524.5C43 527 86 532 128.8 536.3C171.7 540.7 214.3 544.3 257.2 541.3C300 538.3 343 528.7 385.8 524.8C428.7 521 471.3 523 514.2 525.2C557 527.3 600 529.7 642.8 531.3C685.7 533 728.3 534 771.2 535.8C814 537.7 857 540.3 878.5 541.7L900 543L900 601L878.5 601C857 601 814 601 771.2 601C728.3 601 685.7 601 642.8 601C600 601 557 601 514.2 601C471.3 601 428.7 601 385.8 601C343 601 300 601 257.2 601C214.3 601 171.7 601 128.8 601C86 601 43 601 21.5 601L0 601Z" fill="#daa520"></path></svg>