<svg id="visual" viewBox="0 0 900 600" width="900" height="600" xmlns="http://www.w3.org/2000/svg" xmlns:xlink="http://www.w3.org/1999/xlink" version="1.1"><rect x="0" y="0" width="900" height="600" fill="#000"></rect><path d="M0 317L16.7 302C33.3 287 66.7 257 100 252.2C133.3 247.3 166.7 267.7 200 279.5C233.3 291.3 266.7 294.7 300 299.5C333.3 304.3 366.7 310.7 400 303.7C433.3 296.7 466.7 276.3 500 267.2C533.3 258 566.7 260 600 254C633.3 248 666.7 234 700 227.3C733.3 220.7 766.7 221.3 800 234.7C833.3 248 866.7 274 883.3 287L900 300L900 601L883.3 601C866.7 601 833.3 601 800 601C766.7 601 733.3 601 700 601C666.7 601 633.3 601 600 601C566.7 601 533.3 601 500 601C466.7 601 433.3 601 400 601C366.7 601 333.3 601 300 601C266.7 601 233.3 601 200 601C166.7 601 133.3 601 100 601C66.7 601 33.3 601 16.7 601L0 601Z" fill="#422f00"></path><path d="M0 286L16.7 294.2C33.3 302.3 66.7 318.7 100 331.8C133.3 345 166.7 355 200 351.8C233.3 348.7 266.7 332.3 300 332.2C333.3 332 366.7 348 400 343.8C433.3 339.7 466.7 315.3 500 309.2C533.3 303 566.7 315 600 326.3C633.3 337.7 666.7 348.3 700 341.2C733.3 334 766.7 309 800 312.2C833.3 315.3 866.7 346.7 883.3 362.3L900 378L900 601L883.3 601C866.7 601 833.3 601 800 601C766.7 601 733.3 601 700 601C666.7 601 633.3 601 600 601C566.7 601 533.3 601 500 601C466.7 601 433.3 601 400 601C366.7 601 333.3 601 300 601C266.7 601 233.3 601 200 601C166.7 601 133.3 601 100 601C66.7 601 33.3 601 16.7 601L0 601Z" fill="#654a08"></path><path d="M0 391L16.7 400C33.3 409 66.7 427 100 420.3C133.3 413.7 166.7 382.3 200 382.3C233.3 382.3 266.7 413.7 300 424C333.3 434.3 366.7 423.7 400 419.5C433.3 415.3 466.7 417.7 500 419.3C533.3 421 566.7 422 600 424.7C633.3 427.3 666.7 431.7 700 423C733.3 414.3 766.7 392.7 800 394C833.3 395.3 866.7 419.7 883.3 431.8L900 444L900 601L883.3 601C866.7 601 833.3 601 800 601C766.7 601 733.3 601 700 601C666.7 601 633.3 601 600 601C566.7 601 533.3 601 500 601C466.7 601 433.3 601 400 601C366.7 601 333.3 601 300 601C266.7 601 233.3 601 200 601C166.7 601 133.3 601 100 601C66.7 601 33.3 601 16.7 601L0 601Z" fill="#8a6710"></path><path d="M0 444L16.7 446.5C33.3 449 66.7 454 100 460.2C133.3 466.3 166.7 473.7 200 468.2C233.3 462.7 266.7 444.3 300 436.5C333.3 428.7 366.7 431.3 400 433.8C433.3 436.3 466.7 438.7 500 446.3C533.3 454 566.7 467 600 465.2C633.3 463.3 666.7 446.7 700 439.8C733.3 433 766.7 436 800 440.8C833.3 445.7 866.7 452.3 883.3 455.7L900 459L900 601L883.3 601C866.7 601 833.3 601 800 601C766.7 601 733.3 601 700 601C666.7 601 633.3 601 600 601C566.7 601 533.3 601 500 601C466.7 601 433.3 601 400 601C366.7 601 333.3 601 300 601C266.7 601 233.3 601 200 601C166.7 601 133.3 601 100 601C66.7 601 33.3 601 16.7 601L0 601Z" fill="#b18518"></path><path d="M0 536L16.7 535C33.3 534 66.7 532 100 528.7C133.3 525.3 166.7 520.7 200 519.3C233.3 518 266.7 520 300 518.7C333.3 517.3 366.7 512.7 400 509.8C433.3 507 466.7 506 500 508C533.3 510 566.7 515 600 520.2C633.3 525.3 666.7 530.7 700 535.8C733.3 541 766.7 546 800 544.7C833.3 543.3 866.7 535.7 883.3 531.8L900 528L900 601L883.3 601C866.7 601 833.3 601 800 601C766.7 601 733.3 601 700 601C666.7 601 633.3 601 600 601C566.7 601 533.3 601 500 601C466.7 601 433.3 601 400 601C366.7 601 333.3 601 300 601C266.7 601 233.3 601 200 601C166.7 601 133.3 601 100 601C66.7 601 33.3 601 16.7 601L0 601Z" fill="#daa520"></path></svg>