<svg id="visual" viewBox="0 0 900 450" width="900" height="450" xmlns="http://www.w3.org/2000/svg" xmlns:xlink="http://www.w3.org/1999/xlink" version="1.1"><rect x="0" y="0" width="900" height="450" fill="#000"></rect><path d="M0 179L150 192L300 204L450 210L600 199L750 192L900 222L900 451L750 451L600 451L450 451L300 451L150 451L0 451Z" fill="#300078"></path><path d="M0 282L150 260L300 272L450 258L600 229L750 228L900 267L900 451L750 451L600 451L450 451L300 451L150 451L0 451Z" fill="#4c0294"></path><path d="M0 292L150 333L300 311L450 296L600 329L750 305L900 318L900 451L750 451L600 451L450 451L300 451L150 451L0 451Z" fill="#6902b0"></path><path d="M0 391L150 383L300 363L450 376L600 359L750 378L900 380L900 451L750 451L600 451L450 451L300 451L150 451L0 451Z" fill="#8800cc"></path></svg>