<svg id="visual" viewBox="0 0 900 600" width="900" height="600" xmlns="http://www.w3.org/2000/svg" xmlns:xlink="http://www.w3.org/1999/xlink" version="1.1"><rect x="0" y="0" width="900" height="600" fill="#000"></rect><path d="M343 0L381 43L312 86L402 129L392 171L374 214L289 257L305 300L346 343L274 386L314 429L317 471L294 514L387 557L325 600L0 600L0 557L0 514L0 471L0 429L0 386L0 343L0 300L0 257L0 214L0 171L0 129L0 86L0 43L0 0Z" fill="#8800cc"></path><path d="M368 0L319 43L254 86L223 129L360 171L238 214L238 257L347 300L368 343L237 386L360 429L338 471L301 514L340 557L275 600L0 600L0 557L0 514L0 471L0 429L0 386L0 343L0 300L0 257L0 214L0 171L0 129L0 86L0 43L0 0Z" fill="#7002b7"></path><path d="M193 0L175 43L164 86L168 129L223 171L250 214L268 257L195 300L238 343L176 386L223 429L262 471L219 514L169 557L208 600L0 600L0 557L0 514L0 471L0 429L0 386L0 343L0 300L0 257L0 214L0 171L0 129L0 86L0 43L0 0Z" fill="#5a02a2"></path><path d="M138 0L125 43L162 86L164 129L201 171L120 214L202 257L113 300L123 343L181 386L197 429L104 471L170 514L192 557L127 600L0 600L0 557L0 514L0 471L0 429L0 386L0 343L0 300L0 257L0 214L0 171L0 129L0 86L0 43L0 0Z" fill="#45018d"></path><path d="M127 0L125 43L134 86L124 129L76 171L73 214L59 257L58 300L87 343L106 386L80 429L52 471L113 514L102 557L69 600L0 600L0 557L0 514L0 471L0 429L0 386L0 343L0 300L0 257L0 214L0 171L0 129L0 86L0 43L0 0Z" fill="#300078"></path></svg>