<svg id="visual" viewBox="0 0 900 100" width="900" height="100" xmlns="http://www.w3.org/2000/svg" xmlns:xlink="http://www.w3.org/1999/xlink" version="1.1"><path d="M0 24L8.3 20C16.7 16 33.3 8 50 6.7C66.7 5.3 83.3 10.7 100 12.5C116.7 14.3 133.3 12.7 150 11.2C166.7 9.7 183.3 8.3 200 7.2C216.7 6 233.3 5 250 5.2C266.7 5.3 283.3 6.7 300 6.7C316.7 6.7 333.3 5.3 350 5.2C366.7 5 383.3 6 400 5.3C416.7 4.7 433.3 2.3 450 3.3C466.7 4.3 483.3 8.7 500 11.7C516.7 14.7 533.3 16.3 550 14.2C566.7 12 583.3 6 600 3C616.7 0 633.3 0 650 1.5C666.7 3 683.3 6 700 9.5C716.7 13 733.3 17 750 17.7C766.7 18.3 783.3 15.7 800 13.7C816.7 11.7 833.3 10.3 850 8.2C866.7 6 883.3 3 891.7 1.5L900 0L900 0L891.7 0C883.3 0 866.7 0 850 0C833.3 0 816.7 0 800 0C783.3 0 766.7 0 750 0C733.3 0 716.7 0 700 0C683.3 0 666.7 0 650 0C633.3 0 616.7 0 600 0C583.3 0 566.7 0 550 0C533.3 0 516.7 0 500 0C483.3 0 466.7 0 450 0C433.3 0 416.7 0 400 0C383.3 0 366.7 0 350 0C333.3 0 316.7 0 300 0C283.3 0 266.7 0 250 0C233.3 0 216.7 0 200 0C183.3 0 166.7 0 150 0C133.3 0 116.7 0 100 0C83.3 0 66.7 0 50 0C33.3 0 16.7 0 8.3 0L0 0Z" fill="#6198ff"></path><path d="M0 34L8.3 35C16.7 36 33.3 38 50 37.3C66.7 36.7 83.3 33.3 100 31.3C116.7 29.3 133.3 28.7 150 30.5C166.7 32.3 183.3 36.7 200 34C216.7 31.3 233.3 21.7 250 16.5C266.7 11.3 283.3 10.7 300 12.8C316.7 15 333.3 20 350 20.3C366.7 20.7 383.3 16.3 400 13.8C416.7 11.3 433.3 10.7 450 14.3C466.7 18 483.3 26 500 31.8C516.7 37.7 533.3 41.3 550 38.7C566.7 36 583.3 27 600 22C616.7 17 633.3 16 650 16.7C666.7 17.3 683.3 19.7 700 22.7C716.7 25.7 733.3 29.3 750 33.3C766.7 37.3 783.3 41.7 800 40.5C816.7 39.3 833.3 32.7 850 28.5C866.7 24.3 883.3 22.7 891.7 21.8L900 21L900 0L891.7 1.2C883.3 2.3 866.7 4.7 850 6.5C833.3 8.3 816.7 9.7 800 11.7C783.3 13.7 766.7 16.3 750 15.7C733.3 15 716.7 11 700 7.8C683.3 4.7 666.7 2.3 650 1.2C633.3 0 616.7 0 600 2.7C583.3 5.3 566.7 10.7 550 12.5C533.3 14.3 516.7 12.7 500 10C483.3 7.3 466.7 3.7 450 2.7C433.3 1.7 416.7 3.3 400 3.7C383.3 4 366.7 3 350 3.2C333.3 3.3 316.7 4.7 300 4.7C283.3 4.7 266.7 3.3 250 3.2C233.3 3 216.7 4 200 5.2C183.3 6.3 166.7 7.7 150 9.2C133.3 10.7 116.7 12.3 100 10.8C83.3 9.3 66.7 4.7 50 6C33.3 7.3 16.7 14.7 8.3 18.3L0 22Z" fill="#3c80ff"></path><path d="M0 57L8.3 55.2C16.7 53.3 33.3 49.7 50 46.5C66.7 43.3 83.3 40.7 100 39.2C116.7 37.7 133.3 37.3 150 38.3C166.7 39.3 183.3 41.7 200 39.5C216.7 37.3 233.3 30.7 250 28.8C266.7 27 283.3 30 300 35.3C316.7 40.7 333.3 48.3 350 47.7C366.7 47 383.3 38 400 31.2C416.7 24.3 433.3 19.7 450 24.5C466.7 29.3 483.3 43.7 500 52.7C516.7 61.7 533.3 65.3 550 61C566.7 56.7 583.3 44.3 600 39.3C616.7 34.3 633.3 36.7 650 38C666.7 39.3 683.3 39.7 700 39.8C716.7 40 733.3 40 750 41.8C766.7 43.7 783.3 47.3 800 49.5C816.7 51.7 833.3 52.3 850 50.8C866.7 49.3 883.3 45.7 891.7 43.8L900 42L900 19L891.7 19.8C883.3 20.7 866.7 22.3 850 26.5C833.3 30.7 816.7 37.3 800 38.5C783.3 39.7 766.7 35.3 750 31.3C733.3 27.3 716.7 23.7 700 20.7C683.3 17.7 666.7 15.3 650 14.7C633.3 14 616.7 15 600 20C583.3 25 566.7 34 550 36.7C533.3 39.3 516.7 35.7 500 29.8C483.3 24 466.7 16 450 12.3C433.3 8.7 416.7 9.3 400 11.8C383.3 14.3 366.7 18.7 350 18.3C333.3 18 316.7 13 300 10.8C283.3 8.7 266.7 9.3 250 14.5C233.3 19.7 216.7 29.3 200 32C183.3 34.7 166.7 30.3 150 28.5C133.3 26.7 116.7 27.3 100 29.3C83.3 31.3 66.7 34.7 50 35.3C33.3 36 16.7 34 8.3 33L0 32Z" fill="#0066ff"></path><path d="M0 63L8.3 67.7C16.7 72.3 33.3 81.7 50 82C66.7 82.3 83.3 73.7 100 66.7C116.7 59.7 133.3 54.3 150 51.7C166.7 49 183.3 49 200 48C216.7 47 233.3 45 250 50.7C266.7 56.3 283.3 69.7 300 72.5C316.7 75.3 333.3 67.7 350 66.7C366.7 65.7 383.3 71.3 400 65.3C416.7 59.3 433.3 41.7 450 44.5C466.7 47.3 483.3 70.7 500 79.5C516.7 88.3 533.3 82.7 550 74.7C566.7 66.7 583.3 56.3 600 57.2C616.7 58 633.3 70 650 75.8C666.7 81.7 683.3 81.3 700 79.8C716.7 78.3 733.3 75.7 750 76.5C766.7 77.3 783.3 81.7 800 79.7C816.7 77.7 833.3 69.3 850 64.5C866.7 59.7 883.3 58.3 891.7 57.7L900 57L900 40L891.7 41.8C883.3 43.7 866.7 47.3 850 48.8C833.3 50.3 816.7 49.7 800 47.5C783.3 45.3 766.7 41.7 750 39.8C733.3 38 716.7 38 700 37.8C683.3 37.7 666.7 37.3 650 36C633.3 34.7 616.7 32.3 600 37.3C583.3 42.3 566.7 54.7 550 59C533.3 63.3 516.7 59.7 500 50.7C483.3 41.7 466.7 27.3 450 22.5C433.3 17.7 416.7 22.3 400 29.2C383.3 36 366.7 45 350 45.7C333.3 46.3 316.7 38.7 300 33.3C283.3 28 266.7 25 250 26.8C233.3 28.7 216.7 35.3 200 37.5C183.3 39.7 166.7 37.3 150 36.3C133.3 35.3 116.7 35.7 100 37.2C83.3 38.7 66.7 41.3 50 44.5C33.3 47.7 16.7 51.3 8.3 53.2L0 55Z" fill="#0059dd"></path><path d="M0 101L8.3 101C16.7 101 33.3 101 50 101C66.7 101 83.3 101 100 101C116.7 101 133.3 101 150 101C166.7 101 183.3 101 200 101C216.7 101 233.3 101 250 101C266.7 101 283.3 101 300 101C316.7 101 333.3 101 350 101C366.7 101 383.3 101 400 101C416.7 101 433.3 101 450 101C466.7 101 483.3 101 500 101C516.7 101 533.3 101 550 101C566.7 101 583.3 101 600 101C616.7 101 633.3 101 650 101C666.7 101 683.3 101 700 101C716.7 101 733.3 101 750 101C766.7 101 783.3 101 800 101C816.7 101 833.3 101 850 101C866.7 101 883.3 101 891.7 101L900 101L900 55L891.7 55.7C883.3 56.3 866.7 57.7 850 62.5C833.3 67.3 816.7 75.7 800 77.7C783.3 79.7 766.7 75.3 750 74.5C733.3 73.7 716.7 76.3 700 77.8C683.3 79.3 666.7 79.7 650 73.8C633.3 68 616.7 56 600 55.2C583.3 54.3 566.7 64.7 550 72.7C533.3 80.7 516.7 86.3 500 77.5C483.3 68.7 466.7 45.3 450 42.5C433.3 39.7 416.7 57.3 400 63.3C383.3 69.3 366.7 63.7 350 64.7C333.3 65.7 316.7 73.3 300 70.5C283.3 67.7 266.7 54.3 250 48.7C233.3 43 216.7 45 200 46C183.3 47 166.7 47 150 49.7C133.3 52.3 116.7 57.7 100 64.7C83.3 71.7 66.7 80.3 50 80C33.3 79.7 16.7 70.3 8.3 65.7L0 61Z" fill="#004cbb"></path></svg>